<svg xmlns="http://www.w3.org/2000/svg" width="480" height="480" viewBox="0 0 200 200">
  <!-- Bottle labelled "Musk air" -->
  <rect x="85" y="25" width="30" height="22" rx="4" fill="#c9963c"/>
  <path d="M80 47 h40 v20 q20 10 20 40 v55 q0 13 -13 13 h-54 q-13 0 -13 -13 v-55 q0 -30 20 -40z" fill="#cfe3f0" fill-opacity="0.55" stroke="#c9963c" stroke-width="4"/>
  <rect x="68" y="105" width="64" height="38" fill="#f3ead8"/>
  <text x="100" y="122" font-family="Georgia, serif" font-size="13" font-weight="bold" fill="#181818" text-anchor="middle">MUSK</text>
  <text x="100" y="137" font-family="Georgia, serif" font-size="11" fill="#181818" text-anchor="middle" letter-spacing="3">AIR</text>
  <path d="M86 80 q6 -8 0 -16 M100 84 q6 -8 0 -16 M114 80 q6 -8 0 -16" stroke="#f3ead8" stroke-width="2" fill="none" opacity="0.7"/>
  <path d="M150 60 l3 8 8 3 -8 3 -3 8 -3 -8 -8 -3 8 -3z" fill="#fff" opacity="0.8"/>
</svg>
